# xmcd
#
# Track frame offsets: 
#        150
#        13211
#        23378
#        34695
#        50335
#        63625
#        74850
#        84364
#        94476
#        103562
#        118707
#        131450
#        145291
#        155578
#        167371
#        187678
#        199369
#        212475
#        224631
#        235984
#
# Disc length: 3271 seconds
#
# Revision: 2
# Processed by: cddbd v1.5.2PL0 Copyright (c) Steve Scherf et al.
# Submitted via: ExactAudioCopy v1.0b3
#
DISCID=200cc514
DTITLE=Various Artist - 100 Hits - Northern Soul [Disc 1]
DYEAR=2016
DGENRE=Soul
TTITLE0=Gray, Dobie - Out On The Floor
TTITLE1=Street, Judy - What
TTITLE2=Greene, Laura - Moonlight, Music And You
TTITLE3=Wilson, Al - The Snake
TTITLE4=Acklin, Barbara - Am I The Same Girl
TTITLE5=Knight, Robert - Love On A Mountain Top
TTITLE6=Purify, James and Bobby - Shake A Tail Feather
TTITLE7=Edwards, Gloria - My Love Keeps Getting Stronger
TTITLE8=Mateo, Gia - If You Can't Say Anything Nice
TTITLE9=Rich, Charlie - Love Is After Me
TTITLE10=Wilson, Jackie - The Who Who Song
TTITLE11=Johnson, Johnny and The Bandwagon - (Blame It) On The Pony Expr
TTITLE11=ess
TTITLE12=Little Richard - I Don't Want To Discuss It
TTITLE13=Lynne, Sue - Don't Pity Me
TTITLE14=Persuaders, The - I'm So Glad I Got You
TTITLE15=Bandwagon, The - Breakin' Down The Walls Of Heartache
TTITLE16=Sheldon, Sandi - You're Gonna Make Me Love You
TTITLE17=Robinson, Roscoe - That's Enough
TTITLE18=Cavaliers, The - Hold On To My Baby
TTITLE19=Ames, Nancy - I Don't Want To Talk About It
EXTD=
EXTT0=
EXTT1=
EXTT2=
EXTT3=
EXTT4=
EXTT5=
EXTT6=
EXTT7=
EXTT8=
EXTT9=
EXTT10=
EXTT11=
EXTT12=
EXTT13=
EXTT14=
EXTT15=
EXTT16=
EXTT17=
EXTT18=
EXTT19=
PLAYORDER=
